<svg width="4119" height="1735" viewBox="0 0 4119 1735" fill="none" xmlns="http://www.w3.org/2000/svg">
<path d="M473.794 1734.38C379.581 1734.38 296.584 1717.93 224.802 1685.03C153.021 1652.13 97.6892 1606.52 58.8076 1548.19C19.9259 1488.38 0.485108 1419.59 0.485108 1341.82C0.485108 1276.02 13.9441 1216.2 40.8622 1162.37C69.2757 1108.53 106.662 1065.91 153.021 1034.51C200.875 1003.1 253.216 987.401 310.043 987.401C362.383 987.401 406.499 1000.86 442.39 1027.78C478.281 1053.2 500.712 1089.09 509.685 1135.45C431.922 1135.45 369.861 1156.39 323.502 1198.26C277.143 1238.64 253.963 1293.97 253.963 1364.25C253.963 1428.56 273.404 1480.15 312.286 1519.03C351.168 1557.91 402.76 1577.36 467.065 1577.36C546.323 1577.36 611.375 1551.18 662.221 1498.84C714.561 1445.01 740.732 1377.71 740.732 1296.96C740.732 1226.67 721.291 1160.13 682.409 1097.32C643.528 1034.51 585.205 958.24 507.442 868.513C426.688 775.795 365.374 696.537 323.502 630.737C283.125 563.442 262.936 490.165 262.936 410.906C262.936 333.143 284.62 263.604 327.988 202.291C371.356 139.482 431.174 90.1326 507.442 54.2419C583.71 18.3511 669.698 0.405664 765.407 0.405664C886.538 0.405664 982.994 28.8192 1054.78 85.6463C1128.05 142.473 1164.69 218.741 1164.69 314.45C1164.69 377.259 1148.99 428.104 1117.58 466.985C1086.18 505.867 1045.06 525.308 994.21 525.308C937.383 525.308 891.772 502.128 857.376 455.769C885.79 434.833 908.222 407.167 924.672 372.772C941.122 338.377 949.347 302.486 949.347 265.1C949.347 217.246 935.14 179.112 906.726 150.698C878.313 122.285 839.431 108.078 790.081 108.078C730.263 108.078 680.914 129.762 642.032 173.13C604.646 215.002 585.953 268.839 585.953 334.638C585.953 394.456 603.15 450.535 637.546 502.876C671.941 553.721 725.777 619.521 799.054 700.275C858.872 764.579 906.726 819.911 942.617 866.27C980.003 912.629 1011.41 966.465 1036.83 1027.78C1063.75 1087.6 1077.21 1152.65 1077.21 1222.93C1077.21 1318.64 1050.29 1405.38 996.453 1483.14C944.112 1560.91 871.583 1622.22 778.866 1667.08C687.643 1711.95 585.953 1734.38 473.794 1734.38ZM1584.87 1707.46C1499.62 1707.46 1428.59 1678.3 1371.76 1619.98C1314.94 1561.65 1286.52 1470.43 1286.52 1346.31C1286.52 1235.65 1308.21 1119.75 1351.58 998.617C1396.44 875.99 1462.24 772.804 1548.97 689.059C1637.21 603.819 1741.89 561.199 1863.02 561.199C1924.33 561.199 1969.94 571.667 1999.85 592.603C2029.76 613.539 2044.72 641.205 2044.72 675.6V691.302L2069.39 572.414H2392.41L2230.9 1335.09C2224.92 1357.52 2221.93 1381.45 2221.93 1406.87C2221.93 1471.18 2252.58 1503.33 2313.9 1503.33C2355.77 1503.33 2391.66 1483.89 2421.57 1445.01C2452.97 1406.13 2477.65 1355.28 2495.59 1292.47H2589.81C2534.47 1453.98 2465.68 1563.9 2383.43 1622.22C2302.68 1679.05 2221.18 1707.46 2138.93 1707.46C2076.12 1707.46 2025.27 1690.26 1986.39 1655.87C1949.01 1619.98 1926.57 1568.38 1919.1 1501.09C1875.73 1562.4 1827.13 1612.5 1773.29 1651.38C1720.95 1688.77 1658.14 1707.46 1584.87 1707.46ZM1730.67 1489.87C1768.06 1489.87 1804.7 1472.67 1840.59 1438.28C1877.97 1402.39 1903.4 1353.79 1916.85 1292.47L2024.53 785.516C2024.53 766.075 2017.05 747.382 2002.09 729.436C1987.14 709.996 1963.96 700.275 1932.56 700.275C1872.74 700.275 1818.9 735.418 1771.05 805.704C1723.19 874.495 1685.81 958.24 1658.89 1056.94C1631.97 1154.14 1618.51 1240.13 1618.51 1314.9C1618.51 1389.68 1628.98 1437.53 1649.92 1458.47C1672.35 1479.4 1699.27 1489.87 1730.67 1489.87ZM2761.11 572.414H3084.13L3054.97 711.491C3105.81 666.628 3151.42 632.232 3191.8 608.305C3233.67 584.378 3278.54 572.414 3326.39 572.414C3374.24 572.414 3411.63 588.864 3438.55 621.764C3466.96 654.664 3481.17 694.293 3481.17 740.652C3481.17 784.02 3466.96 822.154 3438.55 855.054C3410.13 887.954 3370.51 904.404 3319.66 904.404C3286.76 904.404 3264.33 896.926 3252.36 881.972C3241.9 865.522 3233.67 842.343 3227.69 812.434C3223.2 792.993 3218.72 778.786 3214.23 769.813C3209.74 760.841 3201.52 756.354 3189.56 756.354C3158.15 756.354 3131.23 763.084 3108.8 776.543C3087.87 788.507 3060.2 810.191 3025.8 841.595L2846.35 1694H2523.33L2761.11 572.414ZM3938.72 451.283C3889.37 451.283 3847.5 434.085 3813.11 399.69C3778.71 365.295 3761.51 323.422 3761.51 274.073C3761.51 224.723 3778.71 182.85 3813.11 148.455C3847.5 112.564 3889.37 94.6188 3938.72 94.6188C3988.07 94.6188 4029.95 112.564 4064.34 148.455C4100.23 182.85 4118.18 224.723 4118.18 274.073C4118.18 323.422 4100.23 365.295 4064.34 399.69C4029.95 434.085 3988.07 451.283 3938.72 451.283ZM3786.19 1707.46C3714.41 1707.46 3656.08 1685.03 3611.22 1640.16C3567.85 1595.3 3546.17 1528.01 3546.17 1438.28C3546.17 1400.89 3552.15 1352.29 3564.11 1292.47L3716.65 572.414H4039.67L3878.16 1335.09C3872.18 1357.52 3869.18 1381.45 3869.18 1406.87C3869.18 1436.78 3875.91 1458.47 3889.37 1471.93C3904.33 1483.89 3928.25 1489.87 3961.15 1489.87C3988.07 1489.87 4012 1485.39 4032.94 1476.41C4026.95 1551.18 4000.04 1608.76 3952.18 1649.14C3905.82 1688.02 3850.49 1707.46 3786.19 1707.46Z" fill="#00C2FF"/>
</svg>
