<svg width="6666" height="688" viewBox="0 0 6666 688" fill="none" xmlns="http://www.w3.org/2000/svg">
<path d="M97.1606 511.342C69.6636 511.342 46.7495 501.935 28.4182 483.121C10.0869 464.307 0.921278 434.881 0.921278 394.841C0.921278 359.144 7.91611 321.757 21.9058 282.683C36.3779 243.126 57.6036 209.84 85.5829 182.826C114.045 155.329 147.813 141.58 186.887 141.58C206.666 141.58 221.379 144.957 231.027 151.711C240.675 158.464 245.499 167.389 245.499 178.484V183.549L253.459 145.198H357.658L305.558 391.223C303.629 398.459 302.664 406.178 302.664 414.379C302.664 435.122 312.553 445.494 332.332 445.494C345.839 445.494 357.417 439.222 367.065 426.68C377.195 414.138 385.155 397.736 390.944 377.475H421.335C403.486 429.574 381.296 465.031 354.763 483.845C328.714 502.176 302.423 511.342 275.891 511.342C255.63 511.342 239.228 505.794 226.686 494.699C214.626 483.121 207.39 466.478 204.978 444.77C190.988 464.549 175.31 480.709 157.943 493.252C141.059 505.312 120.798 511.342 97.1606 511.342ZM144.195 441.152C156.255 441.152 168.074 435.604 179.651 424.509C191.711 412.932 199.912 397.253 204.254 377.475L238.987 213.941C238.987 207.669 236.575 201.639 231.751 195.85C226.927 189.579 219.45 186.444 209.319 186.444C190.023 186.444 172.657 197.78 157.22 220.453C141.783 242.643 129.723 269.658 121.039 301.497C112.356 332.853 108.015 360.591 108.015 384.711C108.015 408.831 111.391 424.268 118.145 431.022C125.381 437.775 134.064 441.152 144.195 441.152ZM669.073 511.342C643.506 511.342 624.933 503.623 613.356 488.186C601.778 472.749 595.989 453.212 595.989 429.574C595.989 419.444 597.195 408.108 599.607 395.565C602.019 382.54 604.431 369.998 606.843 357.938C609.738 345.878 611.667 338.159 612.632 334.782C616.491 317.898 620.109 301.255 623.486 284.854C626.863 268.452 628.551 255.186 628.551 245.055C628.551 220.453 619.868 208.152 602.502 208.152C589.959 208.152 578.864 214.423 569.216 226.965C559.568 239.025 551.849 254.945 546.06 274.723L496.855 507H392.657L469.358 145.198H573.557L565.598 182.826C589.718 155.811 617.938 142.304 650.259 142.304C674.862 142.304 694.399 149.057 708.871 162.565C723.343 176.072 730.579 196.574 730.579 224.071C730.579 238.061 728.891 253.739 725.514 271.105C722.137 287.989 717.313 308.733 711.042 333.335C707.183 348.29 703.565 363.003 700.188 377.475C697.294 391.465 695.846 402.56 695.846 410.761C695.846 420.409 698.017 427.886 702.359 433.192C706.7 438.499 714.178 441.152 724.791 441.152C736.368 441.152 744.328 439.705 748.669 436.81C745.775 461.413 736.851 479.985 721.896 492.528C707.424 505.07 689.816 511.342 669.073 511.342ZM1035.14 511.342C1011.99 511.342 993.174 504.106 978.702 489.634C964.712 475.161 957.717 453.453 957.717 424.509C957.717 412.449 959.647 396.771 963.506 377.475L1012.71 145.198H1116.91L1064.81 391.223C1063.36 398.459 1062.64 405.213 1062.64 411.484C1062.64 431.263 1069.88 441.152 1084.35 441.152C1097.86 441.152 1109.43 435.604 1119.08 424.509C1128.73 412.932 1136.45 397.253 1142.24 377.475L1191.44 145.198H1295.64L1243.54 391.223C1241.61 398.459 1240.65 406.178 1240.65 414.379C1240.65 424.027 1242.82 431.022 1247.16 435.363C1251.98 439.222 1259.7 441.152 1270.31 441.152C1283.82 441.152 1295.4 435.363 1305.05 423.786C1315.18 412.208 1323.14 396.771 1328.93 377.475H1359.32C1341.47 429.574 1319.28 465.031 1292.75 483.845C1266.7 502.176 1240.41 511.342 1213.87 511.342C1193.13 511.342 1176.49 505.553 1163.94 493.975C1151.88 482.397 1144.65 465.272 1142.24 442.599C1125.83 469.131 1108.47 487.222 1090.14 496.87C1072.29 506.518 1053.96 511.342 1035.14 511.342ZM1619.01 511.342C1589.58 511.342 1567.87 503.623 1553.88 488.186C1540.37 472.267 1533.62 452.73 1533.62 429.574C1533.62 419.444 1534.83 408.108 1537.24 395.565C1539.65 382.54 1542.06 369.998 1544.48 357.938C1547.37 345.878 1549.3 338.159 1550.26 334.782C1554.12 317.898 1557.74 301.255 1561.12 284.854C1564.49 268.452 1566.18 255.186 1566.18 245.055C1566.18 220.453 1557.5 208.152 1540.13 208.152C1527.59 208.152 1516.5 214.423 1506.85 226.965C1497.2 239.025 1489.48 254.945 1483.69 274.723L1434.49 507H1330.29L1406.99 145.198H1511.19L1503.23 182.826C1527.35 155.811 1555.57 142.304 1587.89 142.304C1612.49 142.304 1632.03 149.057 1646.5 162.565C1660.98 176.072 1668.21 196.574 1668.21 224.071C1668.21 238.061 1666.52 253.739 1663.15 271.105C1659.77 287.989 1654.95 308.733 1648.67 333.335C1644.81 348.29 1641.2 363.003 1637.82 377.475C1634.93 391.465 1633.48 402.56 1633.48 410.761C1633.48 420.409 1635.65 427.886 1639.99 433.192C1644.33 438.499 1651.81 441.152 1662.42 441.152C1676.89 441.152 1688.47 436.087 1697.16 425.956C1705.84 415.344 1714.52 399.183 1723.21 377.475H1753.6C1735.75 430.539 1715 466.237 1691.37 484.568C1668.21 502.417 1644.09 511.342 1619.01 511.342ZM1838.9 511.342C1811.4 511.342 1788.49 501.935 1770.15 483.121C1751.82 464.307 1742.66 434.881 1742.66 394.841C1742.66 359.144 1749.65 321.757 1763.64 282.683C1778.11 243.126 1799.34 209.84 1827.32 182.826C1855.78 155.329 1889.55 141.58 1928.62 141.58C1948.4 141.58 1963.12 144.957 1972.76 151.711C1982.41 158.464 1987.24 167.389 1987.24 178.484V181.378L2022.69 14.9496L2129.79 0.477462L2046.57 391.223C2044.64 398.459 2043.68 406.178 2043.68 414.379C2043.68 424.027 2045.85 431.022 2050.19 435.363C2055.01 439.222 2062.73 441.152 2073.34 441.152C2086.85 441.152 2098.43 435.363 2108.08 423.786C2118.21 412.208 2126.17 396.771 2131.96 377.475H2162.35C2132.92 463.825 2084.44 507 2016.9 507C1997.13 507 1980.96 501.694 1968.42 491.081C1956.36 480.468 1948.88 465.031 1945.99 444.77C1933.45 464.066 1918.25 479.985 1900.4 492.528C1883.04 505.07 1862.53 511.342 1838.9 511.342ZM1885.93 441.152C1897.51 441.152 1909.09 435.846 1920.66 425.233C1932.72 414.62 1940.93 399.907 1945.27 381.093V377.475L1980.72 211.77C1976.38 194.886 1966.49 186.444 1951.06 186.444C1931.76 186.444 1914.39 197.78 1898.96 220.453C1883.52 242.643 1871.46 269.658 1862.78 301.497C1854.09 332.853 1849.75 360.591 1849.75 384.711C1849.75 408.831 1853.13 424.268 1859.88 431.022C1867.12 437.775 1875.8 441.152 1885.93 441.152ZM2264.66 511.342C2228.96 511.342 2201.22 502.176 2181.44 483.845C2161.67 465.031 2151.78 435.846 2151.78 396.289C2151.78 363.003 2158.29 326.34 2171.31 286.301C2184.34 246.262 2205.56 211.77 2234.99 182.826C2264.42 153.399 2301.8 138.686 2347.15 138.686C2400.21 138.686 2426.75 161.841 2426.75 208.152C2426.75 235.166 2419.03 260.01 2403.59 282.683C2388.15 305.356 2367.65 323.687 2342.08 337.677C2316.52 351.184 2289.26 358.902 2260.32 360.832C2259.35 375.304 2258.87 384.952 2258.87 389.776C2258.87 413.414 2262.97 429.574 2271.17 438.258C2279.37 446.458 2292.64 450.559 2310.97 450.559C2337.02 450.559 2359.21 444.529 2377.54 432.469C2396.35 420.409 2416.86 402.077 2439.05 377.475H2463.65C2410.1 466.719 2343.77 511.342 2264.66 511.342ZM2266.11 326.099C2283.95 325.134 2300.84 318.863 2316.76 307.285C2333.16 295.708 2346.18 280.994 2355.83 263.146C2365.96 245.297 2371.03 226.483 2371.03 206.705C2371.03 186.926 2365 177.037 2352.94 177.037C2335.57 177.037 2318.45 192.232 2301.56 222.624C2285.16 253.015 2273.34 287.507 2266.11 326.099ZM2517.04 145.198H2621.24L2611.84 190.062C2628.24 175.59 2642.95 164.494 2655.98 156.776C2669.48 149.057 2683.95 145.198 2699.39 145.198C2714.83 145.198 2726.89 150.505 2735.57 161.117C2744.74 171.73 2749.32 184.514 2749.32 199.468C2749.32 213.458 2744.74 225.759 2735.57 236.372C2726.41 246.985 2713.62 252.292 2697.22 252.292C2686.61 252.292 2679.37 249.88 2675.51 245.055C2672.14 239.749 2669.48 232.272 2667.55 222.624C2666.11 216.353 2664.66 211.77 2663.21 208.875C2661.76 205.981 2659.11 204.534 2655.25 204.534C2645.12 204.534 2636.44 206.705 2629.2 211.046C2622.45 214.905 2613.52 221.9 2602.43 232.031L2544.54 507H2440.34L2517.04 145.198ZM2896.92 687.901C2873.76 687.901 2854.47 681.871 2839.03 669.811C2823.59 657.751 2815.87 640.384 2815.87 617.711C2815.87 590.214 2826.97 568.024 2849.16 551.14C2871.35 534.738 2899.57 520.99 2933.82 509.894L2942.51 471.543C2917.9 498.076 2888.96 511.342 2855.67 511.342C2828.18 511.342 2805.26 501.935 2786.93 483.121C2768.6 464.307 2759.43 434.881 2759.43 394.841C2759.43 359.144 2766.43 321.757 2780.42 282.683C2794.89 243.126 2816.12 209.84 2844.1 182.826C2872.56 155.329 2906.33 141.58 2945.4 141.58C2965.18 141.58 2979.89 144.957 2989.54 151.711C2999.19 158.464 3004.01 167.389 3004.01 178.484V182.826L3011.97 145.198H3116.17L3044.53 480.95C3067.69 473.232 3086.26 461.654 3100.25 446.217C3114.24 430.78 3126.06 407.866 3135.71 377.475H3166.1C3153.07 420.409 3135.47 452.006 3113.28 472.267C3091.09 492.046 3066 505.553 3038.02 512.789L3027.17 564.888C3017.52 611.681 3000.88 643.761 2977.24 661.128C2953.6 678.976 2926.83 687.901 2896.92 687.901ZM2902.71 441.152C2913.8 441.152 2925.14 436.087 2936.72 425.956C2948.29 415.826 2956.25 402.077 2960.6 384.711L2997.5 213.217C2997.5 207.428 2995.09 201.639 2990.26 195.85C2985.44 189.579 2977.96 186.444 2967.83 186.444C2948.54 186.444 2931.17 197.78 2915.73 220.453C2900.3 242.643 2888.24 269.658 2879.55 301.497C2870.87 332.853 2866.53 360.591 2866.53 384.711C2866.53 408.831 2869.9 424.268 2876.66 431.022C2883.89 437.775 2892.58 441.152 2902.71 441.152ZM2880.28 631.46C2888.48 631.46 2896.44 625.912 2904.15 614.817C2911.87 603.722 2917.9 587.802 2922.24 567.059L2926.59 546.075C2879.31 563.441 2855.67 583.943 2855.67 607.581C2855.67 613.852 2857.84 619.4 2862.19 624.224C2866.53 629.048 2872.56 631.46 2880.28 631.46ZM3213.74 145.198H3317.94L3308.53 190.062C3324.93 175.59 3339.65 164.494 3352.67 156.776C3366.18 149.057 3380.65 145.198 3396.09 145.198C3411.52 145.198 3423.58 150.505 3432.27 161.117C3441.43 171.73 3446.02 184.514 3446.02 199.468C3446.02 213.458 3441.43 225.759 3432.27 236.372C3423.1 246.985 3410.32 252.292 3393.92 252.292C3383.3 252.292 3376.07 249.88 3372.21 245.055C3368.83 239.749 3366.18 232.272 3364.25 222.624C3362.8 216.353 3361.35 211.77 3359.91 208.875C3358.46 205.981 3355.81 204.534 3351.95 204.534C3341.82 204.534 3333.13 206.705 3325.9 211.046C3319.14 214.905 3310.22 221.9 3299.12 232.031L3241.24 507H3137.04L3213.74 145.198ZM3552.37 511.342C3524.87 511.342 3501.96 501.935 3483.63 483.121C3465.29 464.307 3456.13 434.881 3456.13 394.841C3456.13 359.144 3463.12 321.757 3477.11 282.683C3491.58 243.126 3512.81 209.84 3540.79 182.826C3569.25 155.329 3603.02 141.58 3642.09 141.58C3661.87 141.58 3676.59 144.957 3686.23 151.711C3695.88 158.464 3700.71 167.389 3700.71 178.484V183.549L3708.67 145.198H3812.86L3760.77 391.223C3758.84 398.459 3757.87 406.178 3757.87 414.379C3757.87 435.122 3767.76 445.494 3787.54 445.494C3801.05 445.494 3812.62 439.222 3822.27 426.68C3832.4 414.138 3840.36 397.736 3846.15 377.475H3876.54C3858.69 429.574 3836.5 465.031 3809.97 483.845C3783.92 502.176 3757.63 511.342 3731.1 511.342C3710.84 511.342 3694.44 505.794 3681.89 494.699C3669.83 483.121 3662.6 466.478 3660.18 444.77C3646.19 464.549 3630.52 480.709 3613.15 493.252C3596.27 505.312 3576.01 511.342 3552.37 511.342ZM3599.4 441.152C3611.46 441.152 3623.28 435.604 3634.86 424.509C3646.92 412.932 3655.12 397.253 3659.46 377.475L3694.19 213.941C3694.19 207.669 3691.78 201.639 3686.96 195.85C3682.13 189.579 3674.66 186.444 3664.53 186.444C3645.23 186.444 3627.86 197.78 3612.43 220.453C3596.99 242.643 3584.93 269.658 3576.25 301.497C3567.56 332.853 3563.22 360.591 3563.22 384.711C3563.22 408.831 3566.6 424.268 3573.35 431.022C3580.59 437.775 3589.27 441.152 3599.4 441.152ZM3962.19 511.342C3934.7 511.342 3911.78 501.935 3893.45 483.121C3875.12 464.307 3865.95 434.881 3865.95 394.841C3865.95 359.144 3872.95 321.757 3886.94 282.683C3901.41 243.126 3922.64 209.84 3950.62 182.826C3979.08 155.329 4012.85 141.58 4051.92 141.58C4071.7 141.58 4086.41 144.957 4096.06 151.711C4105.71 158.464 4110.53 167.389 4110.53 178.484V181.378L4145.99 14.9496L4253.08 0.477462L4169.87 391.223C4167.94 398.459 4166.97 405.454 4166.97 412.208C4166.97 431.504 4176.86 441.152 4196.64 441.152C4205.32 441.152 4213.04 439.705 4219.8 436.81C4217.87 460.931 4209.18 479.503 4193.75 492.528C4178.79 505.07 4160.94 511.342 4140.2 511.342C4120.9 511.342 4104.5 506.518 4090.99 496.87C4077.97 486.739 4069.29 471.543 4064.94 451.283C4036 491.322 4001.75 511.342 3962.19 511.342ZM4009.23 441.152C4019.84 441.152 4030.45 436.569 4041.07 427.404C4052.16 418.238 4060.36 405.454 4065.67 389.053L4068.56 377.475L4104.02 211.77C4099.68 194.886 4089.79 186.444 4074.35 186.444C4055.06 186.444 4037.69 197.78 4022.25 220.453C4006.82 242.643 3994.76 269.658 3986.07 301.497C3977.39 332.853 3973.05 360.591 3973.05 384.711C3973.05 408.831 3976.42 424.268 3983.18 431.022C3990.41 437.775 3999.1 441.152 4009.23 441.152ZM4516.75 511.342C4493.59 511.342 4474.06 507 4458.14 498.317C4442.22 489.151 4430.4 477.573 4422.68 463.584C4414.96 449.112 4411.1 434.157 4411.1 418.72C4411.1 402.801 4414.96 389.053 4422.68 377.475C4429.92 365.415 4438.84 356.732 4449.45 351.425C4468.27 317.657 4484.67 283.648 4498.66 249.397C4512.65 214.664 4525.92 177.278 4538.46 137.239L4645.55 122.766C4647.96 184.514 4652.06 251.327 4657.85 323.205C4660.26 352.149 4661.47 373.133 4661.47 386.158C4661.47 397.253 4660.51 406.419 4658.58 413.655C4681.25 400.63 4698.62 388.57 4710.68 377.475H4741.07C4710.19 413.173 4673.29 443.323 4630.36 467.925C4616.37 482.88 4599 493.975 4578.26 501.211C4558 507.965 4537.49 511.342 4516.75 511.342ZM4493.59 454.177C4511.44 454.177 4526.4 448.871 4538.46 438.258C4550.52 427.645 4556.55 410.52 4556.55 386.882C4556.55 372.41 4555.1 352.149 4552.21 326.099C4547.38 271.105 4544.25 234.201 4542.8 215.388C4531.22 253.498 4511.68 299.085 4484.19 352.149C4495.28 357.938 4500.83 366.38 4500.83 377.475C4500.83 386.641 4497.7 394.841 4491.42 402.077C4485.64 409.314 4478.16 412.932 4468.99 412.932C4458.86 412.932 4452.35 409.796 4449.45 403.525C4449.45 420.891 4452.83 433.675 4459.59 441.876C4466.82 450.077 4478.16 454.177 4493.59 454.177ZM4811.14 511.342C4787.98 511.342 4769.17 504.106 4754.7 489.634C4740.71 475.161 4733.71 453.453 4733.71 424.509C4733.71 412.449 4735.64 396.771 4739.5 377.475L4782.92 174.142H4759.04L4764.83 145.198H4788.71L4810.41 45.3409L4917.51 30.8688L4892.91 145.198H4936.32L4930.53 174.142H4887.12L4840.81 391.223C4838.88 398.459 4837.91 406.178 4837.91 414.379C4837.91 424.027 4840.08 431.022 4844.42 435.363C4849.25 439.222 4856.97 441.152 4867.58 441.152C4881.57 441.152 4894.59 435.363 4906.65 423.786C4918.71 411.726 4927.4 396.289 4932.7 377.475H4963.09C4945.25 429.574 4922.33 465.031 4894.35 483.845C4866.37 502.176 4838.64 511.342 4811.14 511.342ZM5033 511.342C5009.84 511.342 4991.03 504.106 4976.56 489.634C4962.57 475.161 4955.57 453.453 4955.57 424.509C4955.57 412.449 4957.5 396.771 4961.36 377.475L5010.56 145.198H5114.76L5062.66 391.223C5061.22 398.459 5060.49 405.213 5060.49 411.484C5060.49 431.263 5067.73 441.152 5082.2 441.152C5095.71 441.152 5107.29 435.604 5116.93 424.509C5126.58 412.932 5134.3 397.253 5140.09 377.475L5189.29 145.198H5293.49L5241.39 391.223C5239.46 398.459 5238.5 406.178 5238.5 414.379C5238.5 424.027 5240.67 431.022 5245.01 435.363C5249.84 439.222 5257.55 441.152 5268.17 441.152C5281.67 441.152 5293.25 435.363 5302.9 423.786C5313.03 412.208 5320.99 396.771 5326.78 377.475H5357.17C5339.32 429.574 5317.13 465.031 5290.6 483.845C5264.55 502.176 5238.26 511.342 5211.73 511.342C5190.98 511.342 5174.34 505.553 5161.8 493.975C5149.74 482.397 5142.5 465.272 5140.09 442.599C5123.69 469.131 5106.32 487.222 5087.99 496.87C5070.14 506.518 5051.81 511.342 5033 511.342ZM5442.47 511.342C5414.97 511.342 5392.06 501.935 5373.73 483.121C5355.4 464.307 5346.23 434.881 5346.23 394.841C5346.23 359.144 5353.23 321.757 5367.22 282.683C5381.69 243.126 5402.91 209.84 5430.89 182.826C5459.36 155.329 5493.12 141.58 5532.2 141.58C5551.98 141.58 5566.69 144.957 5576.34 151.711C5585.99 158.464 5590.81 167.389 5590.81 178.484V181.378L5626.27 14.9496L5733.36 0.477462L5650.15 391.223C5648.22 398.459 5647.25 406.178 5647.25 414.379C5647.25 424.027 5649.42 431.022 5653.76 435.363C5658.59 439.222 5666.31 441.152 5676.92 441.152C5690.43 441.152 5702 435.363 5711.65 423.786C5721.78 412.208 5729.74 396.771 5735.53 377.475H5765.92C5736.5 463.825 5688.01 507 5620.48 507C5600.7 507 5584.54 501.694 5572 491.081C5559.94 480.468 5552.46 465.031 5549.56 444.77C5537.02 464.066 5521.83 479.985 5503.98 492.528C5486.61 505.07 5466.11 511.342 5442.47 511.342ZM5489.51 441.152C5501.08 441.152 5512.66 435.846 5524.24 425.233C5536.3 414.62 5544.5 399.907 5548.84 381.093V377.475L5584.3 211.77C5579.96 194.886 5570.07 186.444 5554.63 186.444C5535.33 186.444 5517.97 197.78 5502.53 220.453C5487.09 242.643 5475.03 269.658 5466.35 301.497C5457.67 332.853 5453.33 360.591 5453.33 384.711C5453.33 408.831 5456.7 424.268 5463.46 431.022C5470.69 437.775 5479.37 441.152 5489.51 441.152ZM5868.23 511.342C5832.53 511.342 5804.8 502.176 5785.02 483.845C5765.24 465.031 5755.35 435.846 5755.35 396.289C5755.35 363.003 5761.86 326.34 5774.89 286.301C5787.91 246.262 5809.14 211.77 5838.56 182.826C5867.99 153.399 5905.38 138.686 5950.72 138.686C6003.79 138.686 6030.32 161.841 6030.32 208.152C6030.32 235.166 6022.6 260.01 6007.16 282.683C5991.73 305.356 5971.23 323.687 5945.66 337.677C5920.09 351.184 5892.84 358.902 5863.89 360.832C5862.93 375.304 5862.44 384.952 5862.44 389.776C5862.44 413.414 5866.54 429.574 5874.75 438.258C5882.95 446.458 5896.21 450.559 5914.54 450.559C5940.59 450.559 5962.78 444.529 5981.11 432.469C5999.93 420.409 6020.43 402.077 6042.62 377.475H6067.22C6013.68 466.719 5947.35 511.342 5868.23 511.342ZM5869.68 326.099C5887.53 325.134 5904.41 318.863 5920.33 307.285C5936.73 295.708 5949.76 280.994 5959.41 263.146C5969.54 245.297 5974.6 226.483 5974.6 206.705C5974.6 186.926 5968.57 177.037 5956.51 177.037C5939.15 177.037 5922.02 192.232 5905.14 222.624C5888.73 253.015 5876.92 287.507 5869.68 326.099ZM6332.63 511.342C6303.21 511.342 6281.5 503.623 6267.51 488.186C6254 472.267 6247.25 452.73 6247.25 429.574C6247.25 419.444 6248.45 408.108 6250.87 395.565C6253.28 382.54 6255.69 369.998 6258.1 357.938C6261 345.878 6262.93 338.159 6263.89 334.782C6267.75 317.898 6271.37 301.255 6274.75 284.854C6278.12 268.452 6279.81 255.186 6279.81 245.055C6279.81 220.453 6271.13 208.152 6253.76 208.152C6241.22 208.152 6230.12 214.423 6220.47 226.965C6210.83 239.025 6203.11 254.945 6197.32 274.723L6148.11 507H6043.92L6120.62 145.198H6224.82L6216.86 182.826C6240.98 155.811 6269.2 142.304 6301.52 142.304C6326.12 142.304 6345.66 149.057 6360.13 162.565C6374.6 176.072 6381.84 196.574 6381.84 224.071C6381.84 238.061 6380.15 253.739 6376.77 271.105C6373.4 287.989 6368.57 308.733 6362.3 333.335C6358.44 348.29 6354.82 363.003 6351.45 377.475C6348.55 391.465 6347.11 402.56 6347.11 410.761C6347.11 420.409 6349.28 427.886 6353.62 433.192C6357.96 438.499 6365.44 441.152 6376.05 441.152C6390.52 441.152 6402.1 436.087 6410.78 425.956C6419.47 415.344 6428.15 399.183 6436.83 377.475H6467.22C6449.37 430.539 6428.63 466.237 6404.99 484.568C6381.84 502.417 6357.72 511.342 6332.63 511.342ZM6533.71 511.342C6509.11 511.342 6490.78 503.864 6478.72 488.91C6467.14 473.955 6461.35 454.177 6461.35 429.574C6461.35 417.032 6462.8 404.248 6465.69 391.223L6512 174.142H6488.12L6493.91 145.198H6517.79L6539.5 45.3409L6646.59 30.8688C6642.25 49.2001 6639.84 60.0542 6639.36 63.431C6635.98 76.9382 6630.19 104.194 6621.99 145.198H6665.41L6659.62 174.142H6616.2L6569.89 391.223C6567.48 401.836 6566.27 410.278 6566.27 416.55C6566.27 433.916 6574.71 442.599 6591.6 442.599C6600.28 442.599 6606.55 441.876 6610.41 440.428C6600.76 468.408 6589.43 487.222 6576.4 496.87C6563.38 506.518 6549.15 511.342 6533.71 511.342Z" fill="white"/>
</svg>
